<?xml version="1.0" standalone="no"?>
<!DOCTYPE svg PUBLIC "-//W3C//DTD SVG 20010904//EN"
 "http://www.w3.org/TR/2001/REC-SVG-20010904/DTD/svg10.dtd">
<svg version="1.0" xmlns="http://www.w3.org/2000/svg"
 width="256.000000pt" height="256.000000pt" viewBox="0 0 256.000000 256.000000"
 preserveAspectRatio="xMidYMid meet">

<g transform="translate(0.000000,256.000000) scale(0.100000,-0.100000)"
fill="#000000" stroke="none">
<path d="M1095 2400 c-431 -78 -779 -390 -900 -806 -114 -394 -7 -818 281
-1108 174 -175 398 -291 634 -327 45 -7 134 -9 225 -6 129 4 165 9 255 36 455
133 772 512 821 981 34 321 -79 649 -305 888 -140 148 -314 254 -516 313 -96
29 -120 32 -275 35 -93 1 -192 -1 -220 -6z m1083 -1112 l-3 -443 -895 0 -895
0 -3 443 -2 442 900 0 900 0 -2 -442z"/>
<path d="M1224 1571 c-87 -22 -172 -100 -194 -179 -13 -50 -13 -166 2 -214 15
-50 79 -123 132 -150 94 -48 240 -30 316 39 105 94 119 289 30 412 -53 73
-190 117 -286 92z m147 -124 c48 -32 69 -79 69 -156 0 -115 -54 -184 -146
-184 -52 0 -102 28 -129 73 -27 47 -28 159 -2 212 38 76 137 102 208 55z"/>
<path d="M1728 1565 c-88 -29 -138 -127 -105 -207 19 -46 64 -79 153 -112 83
-31 107 -53 102 -92 -5 -43 -61 -61 -142 -46 -33 6 -70 14 -81 17 -17 5 -23 0
-33 -28 -7 -18 -12 -40 -12 -49 0 -34 179 -60 269 -38 99 24 147 103 121 201
-16 57 -56 92 -146 127 -90 35 -114 53 -114 87 0 20 8 29 37 41 36 16 75 13
148 -11 17 -5 23 1 37 40 l17 46 -36 15 c-53 23 -159 27 -215 9z"/>
<path d="M588 1563 l-28 -4 0 -275 0 -274 60 0 59 0 3 93 3 92 82 6 c152 11
218 67 218 184 0 80 -25 122 -90 155 -44 22 -64 25 -165 26 -63 1 -127 0 -142
-3z m221 -104 c35 -12 51 -35 51 -74 0 -58 -43 -85 -137 -85 l-43 0 0 78 c0
43 3 82 7 85 10 11 87 8 122 -4z"/>
</g>
</svg>
